<svg width="32" height="32" viewBox="0 0 32 32" fill="none" xmlns="http://www.w3.org/2000/svg">
<g id="Group 14">
<rect id="Rectangle Copy 5" opacity="0.2" width="32" height="32" rx="8" fill="#3EC8BC"/>
<g id="Group 13">
<path id="Path" d="M18.2562 22.4402H15.7813C15.691 22.4402 15.6169 22.4687 15.5589 22.526C15.501 22.583 15.4719 22.656 15.4719 22.7448V24.5719C15.4719 24.661 15.5009 24.7337 15.5589 24.791C15.617 24.848 15.691 24.8765 15.7813 24.8765H18.2562C18.3464 24.8765 18.4206 24.848 18.4784 24.791C18.5366 24.7337 18.5652 24.661 18.5652 24.5719V22.7448C18.5652 22.656 18.5365 22.583 18.4784 22.526C18.4206 22.4687 18.3464 22.4402 18.2562 22.4402Z" fill="#3EC8BC"/>
<path id="Path_2" d="M13.6155 21.222H11.7593V8.1268C11.7593 8.03803 11.7304 7.96493 11.6723 7.9079C11.6143 7.8509 11.5402 7.82227 11.4499 7.82227H9.59364C9.50347 7.82227 9.42921 7.85077 9.37127 7.90787C9.3134 7.96503 9.28431 8.03803 9.28431 8.12677V21.2219H7.42804C7.28636 21.2219 7.18965 21.2853 7.13804 21.4122C7.0864 21.5329 7.10909 21.6439 7.20566 21.7454L10.2994 24.7909C10.3703 24.8478 10.4443 24.8763 10.5217 24.8763C10.6055 24.8763 10.6797 24.8478 10.7441 24.7909L13.8282 21.755C13.8927 21.679 13.9249 21.6026 13.9249 21.5268C13.9249 21.4376 13.8958 21.3649 13.8379 21.3074C13.7799 21.2505 13.7059 21.222 13.6155 21.222Z" fill="#3EC8BC"/>
<path id="Path_3" d="M20.1124 17.5676H15.7812C15.6909 17.5676 15.6168 17.5961 15.5588 17.6532C15.5009 17.7102 15.4718 17.7832 15.4718 17.8719V19.6994C15.4718 19.7881 15.5008 19.8611 15.5588 19.9181C15.6168 19.9752 15.6909 20.0037 15.7812 20.0037H20.1124C20.2026 20.0037 20.2768 19.9752 20.3346 19.9181C20.3927 19.8611 20.4217 19.7881 20.4217 19.6994V17.8719C20.4217 17.7832 20.3927 17.7102 20.3346 17.6532C20.2768 17.5962 20.2026 17.5676 20.1124 17.5676Z" fill="#3EC8BC"/>
<path id="Path_4" d="M24.0473 7.90787C23.9892 7.8509 23.9152 7.82227 23.8249 7.82227H15.7813C15.691 7.82227 15.6169 7.85077 15.5589 7.90787C15.501 7.96503 15.4719 8.03803 15.4719 8.12677V9.95403C15.4719 10.0429 15.5009 10.1158 15.5589 10.1729C15.617 10.2299 15.691 10.2585 15.7813 10.2585H23.8249C23.9152 10.2585 23.9892 10.23 24.0473 10.1729C24.1052 10.1158 24.1342 10.0429 24.1342 9.95403V8.1268C24.1343 8.03803 24.1052 7.9649 24.0473 7.90787Z" fill="#3EC8BC"/>
<path id="Path_5" d="M21.9687 12.6951H15.7812C15.6909 12.6951 15.6168 12.7236 15.5588 12.7807C15.5009 12.8378 15.4718 12.9107 15.4718 12.9996V14.8268C15.4718 14.9157 15.5008 14.9886 15.5588 15.0457C15.6168 15.1028 15.6909 15.1314 15.7812 15.1314H21.9687C22.0589 15.1314 22.133 15.1029 22.1912 15.0457C22.249 14.9886 22.278 14.9157 22.278 14.8268V12.9996C22.278 12.9107 22.249 12.8377 22.1912 12.7807C22.1329 12.7237 22.0587 12.6951 21.9687 12.6951Z" fill="#3EC8BC"/>
</g>
</g>
</svg>
